<svg xmlns="http://www.w3.org/2000/svg" width="240" height="77.91" viewBox="0 0 240 77.91"><defs><style>.cls-1{fill:#fff;}.cls-2{fill:#e48b13;}.cls-3{fill:#f0c58f;}.cls-4{fill:#38393b;}</style></defs><g id="レイヤー_2" data-name="レイヤー 2"><g id="ロゴ_イラスト" data-name="ロゴ・イラスト"><path class="cls-1" d="M23.3,55C13.81,55,5.58,46.79,4.55,36.32L1.1,1H48.61L45.16,36.32C44.14,46.79,35.9,55,26.42,55Z"/><path class="cls-2" d="M47.51,2,44.17,36.22C43.19,46.19,35.4,54,26.42,54H23.3c-9,0-16.78-7.81-17.75-17.78L2.2,2H47.51m2.2-2H0L3.56,36.41C4.66,47.68,13.45,56,23.3,56h3.12c9.84,0,18.64-8.32,19.74-19.59L49.71,0Z"/><path class="cls-1" d="M86.73,55C77.24,55,69,46.79,68,36.32L64.53,1H112l-3.45,35.32C107.57,46.79,99.33,55,89.85,55Z"/><path class="cls-2" d="M110.94,2,107.6,36.22c-1,10-8.78,17.78-17.75,17.78H86.73C77.75,54,70,46.19,69,36.22L65.63,2h45.31m2.2-2H63.43L67,36.41C68.09,47.68,76.88,56,86.73,56h3.12c9.84,0,18.64-8.32,19.74-19.59L113.14,0Z"/><path class="cls-1" d="M150.15,55c-9.48,0-17.72-8.21-18.74-18.68L128,1h47.51L172,36.32C171,46.79,162.76,55,153.27,55Z"/><path class="cls-2" d="M174.37,2,171,36.22c-1,10-8.77,17.78-17.75,17.78h-3.12c-9,0-16.77-7.81-17.75-17.78L129.06,2h45.31m2.2-2H126.86l3.55,36.41c1.1,11.27,9.9,19.59,19.74,19.59h3.12c9.85,0,18.64-8.32,19.74-19.59L176.57,0Z"/><path class="cls-1" d="M213.58,55c-9.48,0-17.72-8.21-18.74-18.68L191.39,1H238.9l-3.45,35.32C234.42,46.79,226.19,55,216.7,55Z"/><path class="cls-2" d="M237.8,2l-3.35,34.22c-1,10-8.77,17.78-17.75,17.78h-3.12c-9,0-16.77-7.81-17.75-17.78L192.49,2H237.8M240,0H190.29l3.55,36.41c1.1,11.27,9.9,19.59,19.74,19.59h3.12c9.85,0,18.64-8.32,19.74-19.59L240,0Z"/><path class="cls-2" d="M99.79,37.06l-5.85-2.69a2.19,2.19,0,0,0-.94-.21,2.15,2.15,0,0,0-.94.21l-3.32,1.52V33.33a2.27,2.27,0,0,0-1.31-2l-5.85-2.69a2.33,2.33,0,0,0-.94-.2,2.3,2.3,0,0,0-.94.2l-5.85,2.69a2.28,2.28,0,0,0-1.32,2v7.5a2.27,2.27,0,0,0,1.31,2.05l5.85,2.71a2.23,2.23,0,0,0,1,.21,2.26,2.26,0,0,0,1-.21l3.3-1.53v2.55a2.29,2.29,0,0,0,1.31,2l5.85,2.71a2.25,2.25,0,0,0,1.9,0l5.85-2.71a2.28,2.28,0,0,0,1.3-2v-7.5A2.26,2.26,0,0,0,99.79,37.06Z"/><path class="cls-1" d="M84.89,39.11v3.46L81,44.36a.85.85,0,0,1-.76,0l-5.85-2.71a.9.9,0,0,1-.52-.82v-7.5a.9.9,0,0,1,.52-.82l5.85-2.69a.94.94,0,0,1,.76,0l5.85,2.69a.9.9,0,0,1,.52.82v3.19l-1.18.54A2.27,2.27,0,0,0,84.89,39.11Z"/><path class="cls-1" d="M99.75,46.61a.9.9,0,0,1-.52.82l-5.85,2.71a.85.85,0,0,1-.76,0l-5.85-2.71a.9.9,0,0,1-.52-.82v-7.5a.9.9,0,0,1,.52-.82l5.85-2.69a.94.94,0,0,1,.76,0l5.85,2.69a.9.9,0,0,1,.52.82Z"/><path class="cls-3" d="M86,33.07l-5.36,2.35L75.6,33.07a.5.5,0,0,0-.66.24.49.49,0,0,0,.24.66l5,2.32v6.58a.5.5,0,0,0,.5.5.5.5,0,0,0,.5-.5V36.29L86.41,34a.5.5,0,0,0,.25-.66A.49.49,0,0,0,86,33.07Z"/><path class="cls-3" d="M99,39.1a.5.5,0,0,0-.65-.26L93,41.2,88,38.85a.5.5,0,0,0-.42.9l5,2.31v6.59a.5.5,0,1,0,1,0V42.07l5.27-2.32A.49.49,0,0,0,99,39.1Z"/><path class="cls-2" d="M161.28,36.66l-5.95-2.74a2.24,2.24,0,0,0-1-.21,2.31,2.31,0,0,0-1,.21l-3.36,1.55v-2.6a2.33,2.33,0,0,0-1.34-2.09l-5.94-2.73a2.31,2.31,0,0,0-1-.21,2.28,2.28,0,0,0-1,.21l-5.95,2.73a2.32,2.32,0,0,0-1.33,2.09v7.62a2.29,2.29,0,0,0,1.33,2.08l5.94,2.76a2.32,2.32,0,0,0,1,.21,2.28,2.28,0,0,0,1-.21l3.36-1.56v2.59a2.29,2.29,0,0,0,1.33,2.08l5.95,2.76a2.28,2.28,0,0,0,1,.21,2.32,2.32,0,0,0,1-.21l5.94-2.76a2.29,2.29,0,0,0,1.33-2.08V38.74A2.29,2.29,0,0,0,161.28,36.66Z"/><path class="cls-1" d="M146.13,38.74v3.51l-3.94,1.83a.84.84,0,0,1-.38.08.91.91,0,0,1-.39-.08l-5.94-2.76a.9.9,0,0,1-.53-.83V32.87a.91.91,0,0,1,.53-.84l6-2.73a.94.94,0,0,1,.76,0L148.14,32a.93.93,0,0,1,.53.84V36.1l-1.2.56A2.3,2.3,0,0,0,146.13,38.74Z"/><path class="cls-1" d="M161.23,46.36a.9.9,0,0,1-.53.83L154.76,50a.89.89,0,0,1-.39.09A.85.85,0,0,1,154,50l-6-2.76a.92.92,0,0,1-.53-.83V38.74a.92.92,0,0,1,.53-.83l6-2.74a1,1,0,0,1,.38-.08,1.09,1.09,0,0,1,.39.08l5.94,2.74a.9.9,0,0,1,.53.83Z"/><path class="cls-3" d="M147.27,32.6,141.82,35l-5.13-2.39a.51.51,0,0,0-.68.25.52.52,0,0,0,.25.67l5,2.35v6.69a.51.51,0,0,0,.51.51.5.5,0,0,0,.5-.51V35.88l5.36-2.36a.5.5,0,1,0-.4-.92Z"/><path class="cls-3" d="M160.49,38.73a.5.5,0,0,0-.66-.26l-5.45,2.4-5.13-2.4a.52.52,0,0,0-.67.25.5.5,0,0,0,.24.67l5.05,2.35v6.69a.5.5,0,0,0,.5.51.51.51,0,0,0,.51-.51V41.75l5.35-2.36A.49.49,0,0,0,160.49,38.73Z"/><path class="cls-2" d="M169.12,26l-6-2.74a2.38,2.38,0,0,0-1.91,0l-3.37,1.55v-2.6a2.29,2.29,0,0,0-1.33-2.08l-5.95-2.74a2.28,2.28,0,0,0-1.91,0l-5.95,2.74a2.3,2.3,0,0,0-1.34,2.08v7.62a2.31,2.31,0,0,0,1.33,2.08l5.95,2.76a2.28,2.28,0,0,0,1,.21,2.32,2.32,0,0,0,1-.21L154,33.07v2.6a2.29,2.29,0,0,0,1.33,2.07l5.94,2.76a2.33,2.33,0,0,0,1,.22,2.29,2.29,0,0,0,1-.22l5.95-2.76a2.3,2.3,0,0,0,1.32-2.07V28A2.29,2.29,0,0,0,169.12,26Z"/><path class="cls-1" d="M154,28v3.52L150,33.38a.89.89,0,0,1-.39.09.85.85,0,0,1-.38-.09l-6-2.76a.92.92,0,0,1-.53-.83V22.17a.92.92,0,0,1,.53-.83l6-2.74a1,1,0,0,1,.38-.08,1.09,1.09,0,0,1,.39.08L156,21.34a.91.91,0,0,1,.54.83v3.24l-1.21.55A2.29,2.29,0,0,0,154,28Z"/><path class="cls-1" d="M169.08,35.67a.93.93,0,0,1-.53.83l-6,2.76a1,1,0,0,1-.38.08,1,1,0,0,1-.39-.08l-6-2.76a.93.93,0,0,1-.53-.83V28a.91.91,0,0,1,.54-.83l5.94-2.74a1,1,0,0,1,.39-.08,1,1,0,0,1,.38.08l6,2.74a.92.92,0,0,1,.53.83Z"/><path class="cls-3" d="M155.11,21.9l-5.45,2.4-5.13-2.39a.5.5,0,0,0-.43.91l5.05,2.35v6.7a.5.5,0,0,0,.5.5.51.51,0,0,0,.51-.5V25.18l5.36-2.36a.5.5,0,0,0-.41-.92Z"/><path class="cls-3" d="M168.34,28a.51.51,0,0,0-.67-.26l-5.45,2.4-5.13-2.39a.5.5,0,1,0-.42.91l5,2.35v6.7a.51.51,0,0,0,1,0V31.05l5.36-2.35A.52.52,0,0,0,168.34,28Z"/><path class="cls-2" d="M225.28,36.66l-5.95-2.74a2.24,2.24,0,0,0-1-.21,2.31,2.31,0,0,0-1,.21l-3.36,1.55v-2.6a2.33,2.33,0,0,0-1.34-2.09l-5.94-2.73a2.31,2.31,0,0,0-1-.21,2.28,2.28,0,0,0-1,.21l-5.95,2.73a2.32,2.32,0,0,0-1.33,2.09v7.62a2.29,2.29,0,0,0,1.33,2.08l5.94,2.76a2.32,2.32,0,0,0,1,.21,2.28,2.28,0,0,0,1-.21l3.36-1.56v2.59a2.29,2.29,0,0,0,1.33,2.08l5.95,2.76a2.28,2.28,0,0,0,1,.21,2.32,2.32,0,0,0,1-.21l5.94-2.76a2.29,2.29,0,0,0,1.33-2.08V38.74A2.29,2.29,0,0,0,225.28,36.66Z"/><path class="cls-1" d="M210.13,38.74v3.51l-3.94,1.83a.84.84,0,0,1-.38.08.91.91,0,0,1-.39-.08l-5.94-2.76a.9.9,0,0,1-.53-.83V32.87a.91.91,0,0,1,.53-.84l6-2.73a.94.94,0,0,1,.76,0L212.14,32a.93.93,0,0,1,.53.84V36.1l-1.2.56A2.3,2.3,0,0,0,210.13,38.74Z"/><path class="cls-1" d="M225.23,46.36a.9.9,0,0,1-.53.83L218.76,50a.89.89,0,0,1-.39.09A.85.85,0,0,1,218,50l-6-2.76a.92.92,0,0,1-.53-.83V38.74a.92.92,0,0,1,.53-.83l6-2.74a1,1,0,0,1,.38-.08,1.09,1.09,0,0,1,.39.08l5.94,2.74a.9.9,0,0,1,.53.83Z"/><path class="cls-3" d="M211.27,32.6,205.82,35l-5.13-2.39a.51.51,0,0,0-.68.25.52.52,0,0,0,.25.67l5,2.35v6.69a.51.51,0,0,0,.51.51.5.5,0,0,0,.5-.51V35.88l5.36-2.36a.5.5,0,1,0-.4-.92Z"/><path class="cls-3" d="M224.49,38.73a.5.5,0,0,0-.66-.26l-5.45,2.4-5.13-2.4a.52.52,0,0,0-.67.25.5.5,0,0,0,.24.67l5.05,2.35v6.69a.5.5,0,0,0,.5.51.51.51,0,0,0,.51-.51V41.75l5.35-2.36A.49.49,0,0,0,224.49,38.73Z"/><path class="cls-2" d="M233.12,26l-6-2.74a2.38,2.38,0,0,0-1.91,0l-3.37,1.55v-2.6a2.29,2.29,0,0,0-1.33-2.08l-5.95-2.74a2.28,2.28,0,0,0-1.91,0l-5.95,2.74a2.3,2.3,0,0,0-1.34,2.08v7.62a2.31,2.31,0,0,0,1.33,2.08l5.95,2.76a2.28,2.28,0,0,0,1,.21,2.32,2.32,0,0,0,1-.21L218,33.07v2.6a2.29,2.29,0,0,0,1.33,2.07l5.94,2.76a2.33,2.33,0,0,0,1,.22,2.29,2.29,0,0,0,1-.22l5.95-2.76a2.3,2.3,0,0,0,1.32-2.07V28A2.29,2.29,0,0,0,233.12,26Z"/><path class="cls-1" d="M218,28v3.52L214,33.38a.89.89,0,0,1-.39.09.85.85,0,0,1-.38-.09l-6-2.76a.92.92,0,0,1-.53-.83V22.17a.92.92,0,0,1,.53-.83l6-2.74a1,1,0,0,1,.38-.08,1.09,1.09,0,0,1,.39.08L220,21.34a.91.91,0,0,1,.54.83v3.24l-1.21.55A2.29,2.29,0,0,0,218,28Z"/><path class="cls-1" d="M233.08,35.67a.93.93,0,0,1-.53.83l-6,2.76a1,1,0,0,1-.38.08,1,1,0,0,1-.39-.08l-6-2.76a.93.93,0,0,1-.53-.83V28a.91.91,0,0,1,.54-.83l5.94-2.74a1,1,0,0,1,.39-.08,1,1,0,0,1,.38.08l6,2.74a.92.92,0,0,1,.53.83Z"/><path class="cls-3" d="M219.11,21.9l-5.45,2.4-5.13-2.39a.5.5,0,0,0-.43.91l5.05,2.35v6.7a.5.5,0,0,0,.5.5.51.51,0,0,0,.51-.5V25.18l5.36-2.36a.5.5,0,0,0-.41-.92Z"/><path class="cls-3" d="M232.34,28a.51.51,0,0,0-.67-.26l-5.45,2.4-5.13-2.39a.5.5,0,1,0-.42.91l5,2.35v6.7a.51.51,0,0,0,1,0V31.05l5.36-2.35A.52.52,0,0,0,232.34,28Z"/><path class="cls-2" d="M211.23,10.54l-6-2.75a2.32,2.32,0,0,0-1.93,0l-6,2.75a2.33,2.33,0,0,0-1.34,2.1v7.67a2.31,2.31,0,0,0,1.34,2.09l6,2.77a2.29,2.29,0,0,0,1,.21,2.35,2.35,0,0,0,1-.21l6-2.77a2.32,2.32,0,0,0,1.33-2.09V12.64A2.33,2.33,0,0,0,211.23,10.54Z"/><path class="cls-1" d="M211.19,20.31a.92.92,0,0,1-.54.83l-6,2.78a1,1,0,0,1-.38.08,1,1,0,0,1-.39-.08l-6-2.78a.92.92,0,0,1-.54-.83V12.64a.92.92,0,0,1,.54-.84l6-2.75a.85.85,0,0,1,.39-.08.84.84,0,0,1,.38.08l6,2.75a.92.92,0,0,1,.54.84Z"/><path class="cls-3" d="M209.77,12.37l-5.48,2.41-5.16-2.41a.51.51,0,0,0-.43.92l5.08,2.37v6.73a.51.51,0,0,0,.51.51.5.5,0,0,0,.5-.51V15.67l5.39-2.37a.5.5,0,0,0,.26-.67A.5.5,0,0,0,209.77,12.37Z"/><path class="cls-2" d="M232.94,11.12l-6-2.76a2.3,2.3,0,0,0-1.92,0l-6,2.76a2.3,2.3,0,0,0-1.35,2.09v7.67A2.33,2.33,0,0,0,219.05,23l6,2.77a2.25,2.25,0,0,0,1.94,0L233,23a2.33,2.33,0,0,0,1.34-2.09V13.21A2.3,2.3,0,0,0,232.94,11.12Z"/><path class="cls-1" d="M232.9,20.88a.92.92,0,0,1-.53.83l-6,2.78a1,1,0,0,1-.39.08,1.09,1.09,0,0,1-.39-.08l-6-2.78a.92.92,0,0,1-.53-.83V13.21a.93.93,0,0,1,.53-.84l6-2.75a1,1,0,0,1,.78,0l6,2.75a.93.93,0,0,1,.53.84Z"/><path class="cls-3" d="M231.49,12.94,226,15.35l-5.16-2.41a.53.53,0,0,0-.68.25.5.5,0,0,0,.25.67l5.07,2.37V23a.51.51,0,1,0,1,0V16.24l5.39-2.37a.51.51,0,1,0-.41-.93Z"/><path class="cls-4" d="M141.07,70.6c2.81,1.18,1.69,3.11.73,2.25a5.19,5.19,0,0,0-.73-1.92v6.54c0,.13-.52.38-1,.38h-.26V72.21a10,10,0,0,1-1.68,2.43l-.19-.16a16.12,16.12,0,0,0,1.72-5.64h-1.54l-.11-.4h1.8V65.15l1.74.18c0,.21-.14.33-.51.38v2.73h.22l.64-.9s.64.55,1.06,1V67.24l1.29.52h.84V66.44h-2.51l-.11-.4h6.36l.71-.86s.81.6,1.32,1c0,.15-.18.22-.37.22h-2.45v1.32h1l.56-.65,1.15.87a.69.69,0,0,1-.48.23v2.55a1.38,1.38,0,0,1-1,.28h-.22v-.47h-4.94V71c0,.08-.36.32-.95.32H143V68.77a.54.54,0,0,1-.27.07h-1.65ZM145.43,75c-.08.14-.19.21-.52.15a8.31,8.31,0,0,1-3,2.09l-.14-.17A8.45,8.45,0,0,0,144,74.26Zm4.17-2.41s.8.61,1.28,1.05c0,.14-.17.21-.36.21h-3.21v2.48c0,.85-.23,1.36-1.73,1.48a1.12,1.12,0,0,0-.26-.77,2.15,2.15,0,0,0-1.14-.38v-.21s1.31.1,1.59.1.31-.08.31-.23V73.89h-3.46l-.11-.39h6.39ZM148.75,71s.81.61,1.3,1c0,.15-.17.22-.37.22h-6.1l-.11-.38h4.58Zm-4.62-2.81v2h1v-2Zm2-.38h1V66.44h-1Zm1,2.41v-2h-1v2Zm.95,4.29c3.67.87,2.77,3.35,1.55,2.54a6.55,6.55,0,0,0-1.69-2.43Zm0-6.32v2h1v-2Z"/><path class="cls-4" d="M152.74,67.06c3,.15,2.16,2.32,1,1.63a3.58,3.58,0,0,0-1.13-1.54ZM164,73.41s.92.68,1.48,1.18c0,.15-.18.22-.39.22h-5.32v2.73c0,.11-.6.34-1.08.34h-.25V74.81h-5.53l-.11-.4h5.64V73.12a1.81,1.81,0,0,1-.66.12h-.22V68.68a8.43,8.43,0,0,1-1.46,1.13l-.18-.15a11.74,11.74,0,0,0,2.44-4.59l1.7.66c0,.15-.23.26-.53.23a7.43,7.43,0,0,1-.57,1l.06,0h1.58c.16-.57.32-1.28.42-1.83l1.78.45c0,.17-.2.29-.5.28a12.56,12.56,0,0,1-1.22,1.1h2l.75-.94s.86.65,1.36,1.11c0,.15-.16.22-.35.22h-3v1.28h1.07l.67-.87s.77.59,1.25,1a.34.34,0,0,1-.36.22H161.8v1.3h1.09l.68-.86s.76.6,1.23,1c0,.15-.18.22-.37.22H161.8v1.36h1.6l.74-1s.81.66,1.32,1.12c0,.15-.18.22-.37.22h-6.27v.35a.39.39,0,0,1-.19.17l1.51.15c0,.14-.11.27-.39.31v.93h3.39Zm-10.36-2.87c.19,0,.25,0,.41-.22.32-.37.32-.37,2.81-3.76l.21.1c-.52,1-1.73,3-1.92,3.43a2.23,2.23,0,0,0-.26.93c0,.47.41.84.37,1.65a.8.8,0,0,1-.91.81c-.26,0-.46-.2-.53-.54.15-1.1.08-1.78-.21-2a1.88,1.88,0,0,0-.63-.16v-.29Zm.25-5.33c3,.26,2.12,2.42,1,1.71a3.57,3.57,0,0,0-1.13-1.62Zm4.95,2.16v1.28h1.74V67.37Zm1.74,1.68h-1.74v1.3h1.74Zm0,1.7h-1.74v1.36h1.74Z"/><path class="cls-4" d="M214.59,72.08c-.1.13-.32.18-.68.19-2.24,3.32-5.65,5-11.36,5.57l-.07-.21c4.65-1,7.86-2.59,9.85-5.63h-3.4c-.52.34-1.07.68-1.66,1,3,.38,2.39,2.66,1.11,2a4.41,4.41,0,0,0-1.64-1.78,18.82,18.82,0,0,1-3.47,1.29l-.09-.18a16.2,16.2,0,0,0,6.11-4.44,18.49,18.49,0,0,1-7,2.38l-.11-.2c3.8-1.08,6.64-2.63,8.49-5h-3.25c-.41.29-.85.56-1.32.83,2.55.19,2.16,2.11,1,1.7a4.48,4.48,0,0,0-1.52-1.43,15.8,15.8,0,0,1-3,1.19l-.09-.16a14.8,14.8,0,0,0,5.17-4.16l2,.52c-.07.17-.24.26-.68.25a10.18,10.18,0,0,1-1,.86h2.87l.75-.71,1.37,1.18a1,1,0,0,1-.68.19,11.38,11.38,0,0,1-2.76,2.44l2,.48c-.06.17-.26.27-.68.25a16.75,16.75,0,0,1-1.31,1.07h3l.77-.73Z"/><path class="cls-4" d="M224.28,68.51a4.09,4.09,0,0,1,3.86,4.09c0,2.4-1.57,4.35-6.51,4.55l-.06-.29c4.11-.76,5.23-2.63,5.23-4.49a3.22,3.22,0,0,0-2.73-3.23,23.73,23.73,0,0,1-1.18,2.76,9.36,9.36,0,0,1-.66,1.17,1,1,0,0,1,.69.89c0,.3-.22.45-.55.45a1.8,1.8,0,0,1-.86-.33,6.07,6.07,0,0,1-1.07,1,3.24,3.24,0,0,1-2,.87c-.91,0-1.32-.92-1.32-1.83a5.5,5.5,0,0,1,2-4c-.11-.35-.21-.66-.31-.92a4.22,4.22,0,0,0-1.24-1.63l.13-.17a3.54,3.54,0,0,1,1.32.51A1.93,1.93,0,0,1,219.9,69c0,.12.07.27.1.42a6.27,6.27,0,0,1,3.08-1,9.31,9.31,0,0,0,.24-1.33c0-.32-.13-.4-.36-.47a3.74,3.74,0,0,0-.81-.12l0-.23a2.13,2.13,0,0,1,1-.32c.58,0,1.68.55,1.68,1,0,.28-.22.46-.35.89Zm-3.61,4.88a5.14,5.14,0,0,1-.91-1.38c-.16-.37-.31-.8-.45-1.22A4.65,4.65,0,0,0,218,73.64c0,.73.27,1.06.63,1.06a1.88,1.88,0,0,0,1.2-.54A6.27,6.27,0,0,0,220.67,73.39Zm2.25-4.3a5,5,0,0,0-2.79.94,6.86,6.86,0,0,0,.54,1.47,4.7,4.7,0,0,0,.71,1,7.29,7.29,0,0,0,.56-.92A12.83,12.83,0,0,0,222.92,69.09Z"/><path class="cls-4" d="M73.44,67.92c-.08.13-.2.21-.52.18a12.54,12.54,0,0,1-4.21,4.46l-.14-.15a14.49,14.49,0,0,0,3.1-5.28Zm6.28,3.94c-.11.16-.27.19-.61.14-2.45,3.85-5.53,5.19-9.66,5.91l0-.22C73,76.56,76,75,78,71Zm-3.59-6.52c0,.2-.16.32-.48.36v6.39c0,1-.22,1.55-1.89,1.7a1.45,1.45,0,0,0-.36-1,2.44,2.44,0,0,0-1.3-.48v-.19s1.6.1,1.92.1.31-.07.31-.26V65.17Zm3.65,6a12.26,12.26,0,0,0-2.81-4l.13-.11C82.1,69.18,81.26,72.31,79.78,71.34Z"/><path class="cls-4" d="M85.55,66a2.77,2.77,0,0,1,1-.24,2.06,2.06,0,0,1,1.15.32c.27.18.15.53-.29,2,1.12-.37,1.44-.66,1.66-.66a.59.59,0,0,1,.62.55c0,.28-.25.45-.44.59a8.5,8.5,0,0,1-2.22.74,25.24,25.24,0,0,1-2.43,5.47c-.29.44-.51.73-.84.73s-.59-.37-.59-.75a1.21,1.21,0,0,1,.3-.8A14.63,14.63,0,0,0,86,69.38a9.08,9.08,0,0,1-1,.06c-1.1,0-1.59-.35-2-1.64l.21-.15a2.61,2.61,0,0,0,1.87.78,6.47,6.47,0,0,0,1.24-.15A7.21,7.21,0,0,0,86.48,67a.54.54,0,0,0-.31-.57,3.18,3.18,0,0,0-.62-.28Zm5,2.37a3.83,3.83,0,0,1,2,0c.9.29,1.42.88,1.42,1.55,0,.4-.15.66-.51.66s-.75-.34-1.44-.32a1.65,1.65,0,0,0-1.14.5,1.71,1.71,0,0,0-.2,1.27c0,.4.17,1.15.3,1.92a7,7,0,0,1,1.89.81c.78.45,1.25.93,1.25,1.44s-.24.62-.51.62-.53-.32-1-.7a5.64,5.64,0,0,0-1.55-1.06c0,.2,0,.37,0,.54,0,1.18-.91,1.84-2.4,1.84s-2.32-.74-2.32-1.68,1.1-2,3-2a4,4,0,0,1,.5,0c0-.5-.06-1-.06-1.44a2.49,2.49,0,0,1,.6-1.85,4.76,4.76,0,0,1,1.59-1c.17-.11.11-.26-.07-.41a2.67,2.67,0,0,0-1.47-.44ZM90,74.68a5.7,5.7,0,0,0-1.21-.12c-1.18,0-1.76.52-1.76,1s.41.83,1.39.83c1.14,0,1.58-.54,1.58-1.33Z"/><path class="cls-4" d="M104.13,68.51A4.1,4.1,0,0,1,108,72.6c0,2.4-1.58,4.35-6.52,4.55l0-.29c4.1-.76,5.23-2.63,5.23-4.49a3.22,3.22,0,0,0-2.73-3.23,25.61,25.61,0,0,1-1.18,2.76,12.83,12.83,0,0,1-.66,1.17,1,1,0,0,1,.68.89c0,.3-.22.45-.55.45a1.83,1.83,0,0,1-.86-.33,5.75,5.75,0,0,1-1.07,1,3.21,3.21,0,0,1-2,.87c-.9,0-1.32-.92-1.32-1.83a5.5,5.5,0,0,1,2-4c-.11-.35-.2-.66-.3-.92a4.35,4.35,0,0,0-1.25-1.63l.14-.17a3.42,3.42,0,0,1,1.31.51,1.9,1.9,0,0,1,.9,1.11c0,.12.06.27.09.42a6.34,6.34,0,0,1,3.09-1,10.66,10.66,0,0,0,.23-1.33c0-.32-.12-.4-.36-.47a3.65,3.65,0,0,0-.8-.12l0-.23a2.09,2.09,0,0,1,1-.32c.58,0,1.67.55,1.67,1,0,.28-.22.46-.34.89Zm-3.61,4.88a4.87,4.87,0,0,1-.9-1.38,10.29,10.29,0,0,1-.45-1.22,4.61,4.61,0,0,0-1.28,2.85c0,.73.28,1.06.63,1.06a1.93,1.93,0,0,0,1.21-.54A6.25,6.25,0,0,0,100.52,73.39Zm2.25-4.3A5,5,0,0,0,100,70a6.82,6.82,0,0,0,.53,1.47,4.37,4.37,0,0,0,.72,1,8.68,8.68,0,0,0,.56-.92A13.45,13.45,0,0,0,102.77,69.09Z"/><path class="cls-4" d="M15.56,66a2.77,2.77,0,0,1,1-.24A2.06,2.06,0,0,1,17.7,66c.27.18.15.53-.29,2,1.13-.37,1.44-.66,1.66-.66a.59.59,0,0,1,.62.55c0,.28-.25.45-.44.59a8.37,8.37,0,0,1-2.22.74,25.24,25.24,0,0,1-2.43,5.47c-.29.44-.51.73-.84.73s-.59-.37-.59-.75a1.27,1.27,0,0,1,.3-.8A14.63,14.63,0,0,0,16,69.38a9,9,0,0,1-1,.06c-1.1,0-1.59-.35-2-1.64l.21-.15a2.62,2.62,0,0,0,1.88.78,6.36,6.36,0,0,0,1.23-.15A7.21,7.21,0,0,0,16.49,67a.53.53,0,0,0-.31-.57,3.18,3.18,0,0,0-.62-.28Zm5,2.37a3.83,3.83,0,0,1,2,0A1.76,1.76,0,0,1,24,69.91c0,.4-.15.66-.51.66s-.75-.34-1.44-.32a1.65,1.65,0,0,0-1.14.5,1.81,1.81,0,0,0-.2,1.27c0,.4.17,1.15.3,1.92a7,7,0,0,1,1.89.81c.78.45,1.25.93,1.25,1.44s-.23.62-.51.62-.53-.32-1-.7a5.64,5.64,0,0,0-1.55-1.06,5.32,5.32,0,0,1,0,.54c0,1.18-.91,1.84-2.4,1.84s-2.32-.74-2.32-1.68,1.1-2,3-2a4.26,4.26,0,0,1,.51,0c0-.5-.07-1-.07-1.44a2.53,2.53,0,0,1,.6-1.85,4.76,4.76,0,0,1,1.59-1c.17-.11.11-.26-.07-.41a2.66,2.66,0,0,0-1.46-.44ZM20,74.68a5.7,5.7,0,0,0-1.21-.12c-1.18,0-1.76.52-1.76,1s.42.83,1.39.83c1.14,0,1.58-.54,1.58-1.33Z"/><path class="cls-4" d="M27.21,66.59v-.25a3.2,3.2,0,0,1,1-.19c.81,0,2,.91,2,1.4s-.33.5-.47,1.17a28.57,28.57,0,0,0-.53,5c0,1.64.46,2.25,2,2.25a6.86,6.86,0,0,0,5.24-2.81l.27.18a6.18,6.18,0,0,1-5.65,3.94c-1.89,0-3-.95-3-3.43,0-2,.3-5,.3-5.93,0-.59-.07-.81-.31-1A2.54,2.54,0,0,0,27.21,66.59Z"/></g></g></svg>