<svg xmlns="http://www.w3.org/2000/svg" width="320" height="250.4" viewBox="0 0 320 250.4"><defs><style>.cls-1{fill:#e48b13;}.cls-2,.cls-3{fill:#fff;}.cls-3{stroke:#fff;stroke-linecap:round;stroke-linejoin:round;stroke-width:1.06px;}</style></defs><g id="レイヤー_2" data-name="レイヤー 2"><g id="ロゴ_イラスト" data-name="ロゴ・イラスト"><path class="cls-1" d="M120.33,86.64H190.4a0,0,0,0,1,0,0v0a6.46,6.46,0,0,1-6.46,6.46H126.79a6.46,6.46,0,0,1-6.46-6.46v0A0,0,0,0,1,120.33,86.64Z"/><path class="cls-1" d="M126.13,44.86v18a29.43,29.43,0,0,0,8.63,20.83l2.93,2.93h31.7l2.93-2.93A29.48,29.48,0,0,0,181,62.88v-18Z"/><path class="cls-1" d="M183.25,81.06h-10a12.43,12.43,0,0,1-12.42-12.42V62.86a12.43,12.43,0,0,1,12.42-12.42h10a12.43,12.43,0,0,1,12.42,12.42v5.78A12.43,12.43,0,0,1,183.25,81.06Zm-10-26.89a8.7,8.7,0,0,0-8.69,8.69v5.78a8.7,8.7,0,0,0,8.69,8.69h10a8.7,8.7,0,0,0,8.69-8.69V62.86a8.7,8.7,0,0,0-8.69-8.69Z"/><path class="cls-2" d="M132.89,22v7a.88.88,0,0,0,1.76,0V22a.88.88,0,0,0-1.76,0Z"/><path class="cls-2" d="M141.16,13.08V37.9a.88.88,0,0,0,1.76,0V13.08a.88.88,0,0,0-1.76,0Z"/><path class="cls-2" d="M151.76,16.31V34.67a.88.88,0,0,0,1.76,0V16.31a.88.88,0,0,0-1.76,0Z"/><path class="cls-2" d="M161.59,20.45V30.53a.88.88,0,0,0,1.76,0V20.45a.88.88,0,0,0-1.76,0Z"/><path class="cls-2" d="M170.64,16.18V34.8a.88.88,0,0,0,1.76,0V16.18a.88.88,0,0,0-1.76,0Z"/><path class="cls-2" d="M176.59,21.87v7.24a.88.88,0,0,0,1.76,0V21.87a.88.88,0,0,0-1.76,0Z"/><path class="cls-2" d="M50.23,98.89a108.25,108.25,0,0,1,215.54,0h.82a109.07,109.07,0,0,0-217.18,0Z"/><path class="cls-2" d="M113.77,58A59.81,59.81,0,0,0,98.2,93h.45A59.39,59.39,0,0,1,114.37,58Z"/><path class="cls-2" d="M201.63,58a59.39,59.39,0,0,1,15.72,35h.45A59.82,59.82,0,0,0,202.22,58Z"/><path class="cls-2" d="M38.77,158.08,11.93,119.85h-.24V145.9c0,8,.91,9,6.3,9.15v2.42H0v-2.42c5.94-.18,7-1.21,7-8.72V122c0-6.84-.91-8.48-6.36-8.72v-2.42h16.9l24.41,35h.24V122.4c0-8-.9-9-6.3-9.15v-2.42h18v2.42c-5.94.18-7,1.21-7,8.72v36.11Z"/><path class="cls-2" d="M80.15,157.47H58.52v-2.42c5.46-.18,6.36-1.21,6.36-8.72V122c0-6.84-.78-8.48-5.75-8.72v-2.42H79.54v2.42c-5,.24-5.75,1.88-5.75,8.72v24.36c0,7.51.91,8.54,6.36,8.72Z"/><path class="cls-2" d="M125.77,110.83h3l-1.21,15.32H125.1c-1.69-7.39-6.9-12-13.81-12-9.51,0-15,7.75-15,20.41,0,12.48,5.27,19.51,15.2,19.51,8,0,13.45-4.42,15.69-13h2.67v16.41H127l-.85-4.78A24.83,24.83,0,0,1,110,158.08c-14.72,0-24.23-9-24.23-23.14,0-14.66,10.17-24.72,24.95-24.72,4.91,0,8.91,1.27,13.88,4.36Z"/><path class="cls-2" d="M182.78,147.72c0,6.18.91,7.15,6.36,7.33v2.42H166.91v-2.42c5.93-.18,7-1.21,7-6.91V135.48H151.4v12.24c0,6.18,1,7.15,6.9,7.33v2.42H136.13v-2.42c5.45-.18,6.36-1.21,6.36-6.91v-28c0-5.64-.79-6.67-5.69-6.91v-2.42h20.9v2.42c-5.45.18-6.3,1.21-6.3,7.33v11.15h22.47V120.16c0-5.64-.91-6.67-6.36-6.91v-2.42h21v2.42c-4.9.18-5.69,1.21-5.69,7.33Z"/><path class="cls-2" d="M216.28,157.47H194.65v-2.42c5.46-.18,6.37-1.21,6.37-8.72V122c0-6.84-.79-8.48-5.76-8.72v-2.42h20.42v2.42c-5,.24-5.76,1.88-5.76,8.72v24.36c0,7.51.91,8.54,6.36,8.72Z"/><path class="cls-2" d="M221.8,157.47v-2.42c5.33-.18,6.36-1.15,6.36-6.91v-28c0-5.64-.79-6.67-5.39-6.91v-2.42h23c15.5,0,26.77,10.17,26.77,24.11,0,13.26-10.48,22.53-25.5,22.53Zm16.29-42.95a1,1,0,0,0-1,1v31.32c0,4.67,2.85,6.91,8.91,6.91,10.54,0,16.48-6.61,16.48-18.72,0-12.9-6.37-20.54-16.79-20.54Z"/><path class="cls-2" d="M293.22,131.67c10.36,0,11.88-.85,12.6-7.39h2.25V142h-2.25c-1-6.55-2.48-7.27-12.6-7.27v12.48c0,5.2,2.55,6.9,10.36,6.9,9.21,0,12.3-2.3,14-10.54H320l-1,13.87H278v-2.42c5.39-.18,6.36-1.21,6.36-6.91v-28c0-5.64-.85-6.67-5.7-6.91v-2.42h38.29l.42,11.87h-2.6c-1-6.78-3.76-8.66-12.36-8.66h-6.84c-2.06,0-2.31.3-2.31,2.24Z"/><path class="cls-2" d="M105.2,169.35h3L107,184.68h-2.43c-1.69-7.39-6.9-12-13.81-12-9.51,0-15,7.75-15,20.41,0,12.48,5.27,19.51,15.2,19.51,8,0,13.45-4.42,15.69-13h2.67V216h-2.85l-.85-4.78a24.83,24.83,0,0,1-16.17,5.39c-14.72,0-24.23-9-24.23-23.15,0-14.66,10.17-24.71,25-24.71,4.9,0,8.9,1.27,13.87,4.36Z"/><path class="cls-2" d="M143.79,201.89H126.65c-1.94,4.36-2.85,7.21-2.85,8.9,0,2.42,1.82,2.79,5.45,2.79V216H112.66v-2.42c3.87-.43,5.57-1.46,7-4.91l15.93-39.92H140l14.48,35.38c3.33,8.18,4.24,8.84,9.69,9.39V216h-22.9v-2.48c3.88-.18,5.45-.61,5.45-2.55,0-1.15-.6-2.9-1.57-5.45ZM128,198.25h14.42l-7-18.36h-.24Z"/><path class="cls-2" d="M181.05,206.25c0,6.18,1.15,7.15,8.85,7.33V216H165.79v-2.42c5.39-.18,6.36-1.21,6.36-6.91v-28c0-5.63-.85-6.66-5.7-6.9v-2.43h37.08l.72,12.79h-2.54c-1-6.91-3.39-9.39-11.21-9.39h-8.36a1,1,0,0,0-1.09,1v17.5c9.82,0,12-1.33,12.6-7.87h2.24v19h-2.24c-1-6.78-3-7.81-12.6-7.87Z"/><path class="cls-2" d="M224,190.19c10.36,0,11.87-.84,12.6-7.39h2.24v17.75h-2.24c-1-6.54-2.49-7.27-12.6-7.27v12.48c0,5.21,2.54,6.91,10.36,6.91,9.2,0,12.29-2.3,14-10.54h2.42l-1,13.87H208.74v-2.42c5.39-.18,6.36-1.21,6.36-6.91v-28c0-5.63-.85-6.66-5.69-6.9v-2.43h38.28l.43,11.88h-2.61c-1-6.79-3.75-8.66-12.36-8.66h-6.84c-2.06,0-2.3.3-2.3,2.24Z"/><polygon class="cls-1" points="243.2 228.42 161.11 228.42 154.89 228.42 72.8 228.42 81.56 239.32 72.8 250.4 154.89 250.4 161.11 250.4 243.2 250.4 234.44 239.5 243.2 228.42"/><path class="cls-2" d="M105.21,243.64c-2.32,0-3.76-1.54-3.76-4,0-3.26,2.58-6.17,5.47-6.17a4,4,0,0,1,2.32.77l.48-.64h.47l-.59,3.23h-.49c-.13-1.85-.77-2.69-2.09-2.69-2.25,0-4,2.42-4,5.51,0,2.11.85,3.19,2.48,3.19,1.24,0,2.2-.64,3.12-2.07l.46.31C107.89,242.91,106.79,243.64,105.21,243.64Z"/><path class="cls-2" d="M110.45,241.05c0-2.24,1.82-4.49,3.7-4.49a2.2,2.2,0,0,1,2.12,2.47c0,2.16-1.86,4.61-3.72,4.61C111.39,243.64,110.45,242.68,110.45,241.05Zm4.59-2.69c0-.9-.35-1.19-.89-1.19-1.16,0-2.34,2.61-2.34,4.51,0,1,.34,1.32.82,1.32C113.79,243,115,240.31,115,238.36Z"/><path class="cls-2" d="M119.07,242.57c-.77,3.09-1.63,4.29-3.09,4.29-.83,0-1.36-.39-1.36-1a.61.61,0,0,1,.63-.68c.71,0,.41.9,1,.9.41,0,.76-.41.94-1.12l1.87-7.25h-1.24l.17-.59h1.22c.77-2.76,1.55-3.66,3.16-3.66a3.2,3.2,0,0,1,1.75.43,2.2,2.2,0,0,1,1.89-1.07c.94,0,1.67.49,1.67,1.12a.64.64,0,0,1-.65.69c-.88,0-.47-1.23-1.15-1.23s-1.36,1.31-1.85,3.72h1.55l-.18.59h-1.52l-1.19,4.85c-.78,3.12-1.59,4.29-3,4.29-.79,0-1.28-.34-1.28-.88a.55.55,0,0,1,.57-.6c.57,0,.49.71,1,.71s.66-.38.85-1.12l1.86-7.25h-2.44Zm4.61-7.89a1.43,1.43,0,0,0-1.23-.63c-.93,0-1.42.73-2,3.08h2.44A16.75,16.75,0,0,1,123.68,234.68Z"/><path class="cls-2" d="M130.32,241.8a3.28,3.28,0,0,1-2.76,1.84c-1.17,0-1.84-.77-1.84-2.1,0-2.37,2.17-5,4.12-5,.83,0,1.4.46,1.4,1.12,0,1.2-1.91,2.63-4.2,3.14a4.44,4.44,0,0,0-.06.71c0,.91.35,1.4,1,1.4a2.67,2.67,0,0,0,1.93-1.4Zm-3.16-1.56c1.65-.45,2.87-1.5,2.87-2.53q0-.54-.45-.54C128.68,237.17,127.6,238.67,127.16,240.24Z"/><path class="cls-2" d="M136.39,241.8a3.27,3.27,0,0,1-2.76,1.84c-1.17,0-1.84-.77-1.84-2.1,0-2.37,2.17-5,4.12-5,.83,0,1.41.46,1.41,1.12,0,1.2-1.92,2.63-4.21,3.14a4.39,4.39,0,0,0-.05.71c0,.91.34,1.4,1,1.4a2.67,2.67,0,0,0,1.93-1.4Zm-3.15-1.56c1.64-.45,2.87-1.5,2.87-2.53,0-.36-.16-.54-.45-.54C134.76,237.17,133.67,238.67,133.24,240.24Z"/><path class="cls-2" d="M146.62,236.69h1.07l-.73,2a16.24,16.24,0,0,0-1,3.68c0,.25.09.37.25.37s.72-.55,1.28-1.33l.34.26c-.71,1.27-1.6,2-2.37,2-.4,0-.62-.28-.62-1,0-.16,0-.35,0-.69h0a3,3,0,0,1-2.33,1.66c-.86,0-1.39-.71-1.39-1.87,0-2.36,2.21-5.21,4.07-5.21a1.11,1.11,0,0,1,1.13.85Zm-4.25,5c0,.62.29,1,.72,1,1.2,0,2.73-3.12,2.73-4.78,0-.45-.2-.72-.53-.72C144,237.23,142.37,239.93,142.37,241.71Z"/><path class="cls-2" d="M151.11,240.94l-1,2.57H149l.95-2.95a15.56,15.56,0,0,0,.81-2.94c0-.22-.08-.35-.22-.35-.38,0-1.08,1-1.41,2.07l-.39-.19c.6-1.75,1.34-2.59,2.29-2.59.55,0,.76.28.76,1a2.78,2.78,0,0,1-.22,1.17l0,0c.88-1.53,1.75-2.23,2.81-2.23.74,0,1.16.37,1.16,1a9,9,0,0,1-.69,2.54,12.13,12.13,0,0,0-.68,2.3c0,.13,0,.2.13.2.24,0,.68-.38,1.47-1.25l.33.18a4.18,4.18,0,0,1-2.52,2.07c-.43,0-.7-.41-.7-1s.11-.8,1-3.38a4.94,4.94,0,0,0,.4-1.52c0-.32-.12-.48-.35-.48C153.21,237.23,151.81,239.07,151.11,240.94Z"/><path class="cls-2" d="M163,234.6a5.53,5.53,0,0,0,.2-.91c0-.26-.29-.35-1.18-.35l.14-.51h2.48L163.22,238a20.53,20.53,0,0,0-.92,4.21c0,.39.14.53.32.53.37,0,.86-.7,1.2-1.73l.49.12c-.58,1.68-1.27,2.47-2.14,2.47-.62,0-1-.41-1-1.15a2.56,2.56,0,0,1,.09-.59l-.1,0a3.17,3.17,0,0,1-2.51,1.76c-.87,0-1.56-.81-1.56-2,0-2.24,2.26-5.07,4-5.07a1.13,1.13,0,0,1,1.11.7Zm-4.64,7.19c0,.61.34,1,.85,1,1.17,0,2.67-3.07,2.67-4.71,0-.53-.21-.85-.65-.85C159.9,237.24,158.37,240,158.37,241.79Z"/><path class="cls-2" d="M168.41,238.68a6.38,6.38,0,0,1,2.32-1.67l.6-2.06h1l-.45,1.71a4.46,4.46,0,0,1,.81-.09,2.09,2.09,0,0,1,2.3,2.26c0,2.26-2.33,4.12-4.88,4.45l-.47,1.79a1.82,1.82,0,0,0-.1.55c0,.43.3.58,1.19.6l-.07.51H167l.08-.51c.72,0,1-.15,1.13-.6l2.33-8a6.33,6.33,0,0,0-1.77,1.38Zm3.28-1.41-1.45,5.46a4.23,4.23,0,0,0,3.39-3.83c0-1-.51-1.7-1.3-1.7A3.48,3.48,0,0,0,171.69,237.27Z"/><path class="cls-2" d="M181.26,236.69h1.07l-.74,2a16.11,16.11,0,0,0-1,3.68c0,.25.09.37.25.37s.72-.55,1.28-1.33l.34.26c-.71,1.27-1.6,2-2.37,2-.4,0-.62-.28-.62-1,0-.16,0-.35,0-.69h-.05a3,3,0,0,1-2.33,1.66c-.87,0-1.39-.71-1.39-1.87,0-2.36,2.21-5.21,4.06-5.21a1.11,1.11,0,0,1,1.14.85Zm-4.25,5c0,.62.28,1,.72,1,1.2,0,2.73-3.12,2.73-4.78,0-.45-.21-.72-.53-.72C178.62,237.23,177,239.93,177,241.71Z"/><path class="cls-2" d="M186.54,236.56c.83,0,1.45.46,1.45,1.11a.53.53,0,0,1-.56.58c-.78,0-.54-1.14-1.18-1.14a.78.78,0,0,0-.67.85c0,1.15,1.62,1.83,1.62,3.56a2.25,2.25,0,0,1-2.26,2.12c-1,0-1.69-.49-1.69-1.21,0-.49.26-.8.64-.8s.58.26.63.76.15.68.53.68a1,1,0,0,0,1-1c0-1.39-1.65-1.94-1.65-3.5A2,2,0,0,1,186.54,236.56Z"/><path class="cls-2" d="M191.52,237.76l-1.07,3.54a5.54,5.54,0,0,0-.24,1c0,.16.07.3.26.3.61,0,1.46-1.08,1.69-1.47l.37.22c-.59,1.17-1.86,2.24-2.7,2.24-.59,0-.85-.24-.85-.84a7.53,7.53,0,0,1,.4-1.89l1-3.15h-1.11l.17-.59h1.12l.67-2.22h1.18l-.66,2.22h1.4l-.18.59Z"/><path class="cls-2" d="M193.67,238.48a3.77,3.77,0,0,1,2.36-1.92c.41,0,.59.3.59,1a3.91,3.91,0,0,1-.09.85l0,0a3.36,3.36,0,0,1,2.36-2,.84.84,0,0,1,.87.83.74.74,0,0,1-.76.77c-.54,0-.59-.48-.9-.48-.66,0-1.79,1.86-2.55,4.18l-.58,1.78h-1.19l.83-2.66a13.32,13.32,0,0,0,.81-3c0-.2-.06-.29-.19-.29a2.1,2.1,0,0,0-1.26,1.09Z"/><path class="cls-2" d="M201.49,239.26a4.42,4.42,0,0,0,.33-1.3c0-.23-.09-.29-.18-.29-.36,0-1,.82-1.12,1.09l-.37-.23c.4-.77,1.6-2,2.49-2,.42,0,.64.22.64.86a11.14,11.14,0,0,1-.81,2.63l-.48,1.3a4.87,4.87,0,0,0-.27,1,.27.27,0,0,0,.27.3c.5,0,1.19-1,1.38-1.34l.39.22c-.42.84-1.45,2.11-2.58,2.11-.5,0-.75-.24-.75-.84a6.05,6.05,0,0,1,.48-1.89Zm1.09-5.6a.81.81,0,0,1,.8-.83.81.81,0,1,1,0,1.62A.79.79,0,0,1,202.58,233.66Z"/><path class="cls-2" d="M209.32,241.8a3.26,3.26,0,0,1-2.75,1.84c-1.17,0-1.84-.77-1.84-2.1,0-2.37,2.16-5,4.12-5,.82,0,1.4.46,1.4,1.12,0,1.2-1.92,2.63-4.21,3.14a4.39,4.39,0,0,0,0,.71c0,.91.35,1.4,1,1.4a2.67,2.67,0,0,0,1.93-1.4Zm-3.15-1.56c1.65-.45,2.87-1.5,2.87-2.53q0-.54-.45-.54C207.69,237.17,206.61,238.67,206.17,240.24Z"/><path class="cls-2" d="M213.79,236.56c.82,0,1.44.46,1.44,1.11a.53.53,0,0,1-.56.58c-.78,0-.54-1.14-1.18-1.14a.78.78,0,0,0-.67.85c0,1.15,1.62,1.83,1.62,3.56a2.25,2.25,0,0,1-2.26,2.12c-1,0-1.69-.49-1.69-1.21,0-.49.26-.8.64-.8s.58.26.64.76.14.68.52.68a1,1,0,0,0,1-1c0-1.39-1.65-1.94-1.65-3.5A2,2,0,0,1,213.79,236.56Z"/><path class="cls-3" d="M245.38,236.1h14.47"/><path class="cls-3" d="M245.38,242.72h14.47"/><path class="cls-3" d="M56.15,236.1H70.62"/><path class="cls-3" d="M56.15,242.72H70.62"/><path class="cls-2" d="M87.69,78,76.22,72.63,78,68.89l1.08.51-1.18,2.53,3.82,1.78.91-1.94,1.12.52-.91,1.95,4.36,2,1.24-2.67,1.09.51Z"/><path class="cls-2" d="M90.27,66.49c1,.66,2,.66,2.45,0s0-1.58-1.18-2.38a3,3,0,0,0-3-.31,4.75,4.75,0,0,1-2.14.55,3.79,3.79,0,0,1-2.26-.68c-1.56-1-2-2.41-1.19-3.67s2.07-1.38,3.63-.54L86,60.64c-1.18-.55-1.74-.53-2.13.06s-.11,1.19.67,1.7a2.67,2.67,0,0,0,1.82.48A4.32,4.32,0,0,0,88,62.4a4.2,4.2,0,0,1,4.09.44,5.2,5.2,0,0,1,1.87,2,2.37,2.37,0,0,1-.26,2.35c-.83,1.29-2.26,1.46-4,.45Z"/><path class="cls-2" d="M99.32,59.32l-8.73-7.47-1,1.22-.91-.78,3-3.45.91.77-1.05,1.23,8.72,7.47Z"/><path class="cls-2" d="M97,43.34l1.24-1.1a2.51,2.51,0,0,1,2.8-.72,10.43,10.43,0,0,1,4,3.12c1.62,1.84,2.59,3.42,2.75,4.55a2.45,2.45,0,0,1-1,2.44l-1.37,1.2Zm9,7.33c1-.88.42-2.33-2-5.09-1.57-1.78-2.75-2.69-3.75-2.9a1.17,1.17,0,0,0-1.14.37l-.34.31,6.81,7.7Z"/><path class="cls-2" d="M206.14,48.65l.85-1c3.2-.6,6.18-2.09,7.72-3.9,1-1.17,1.21-2,.65-2.46s-1.43-.2-2.38.92l-.79-.92c1.46-1.6,2.84-1.9,4-.9s1,2.51-.36,4.16c-1.6,1.88-4.43,3.29-8,4l2.67,2.26-.75.89Z"/><path class="cls-2" d="M225.78,52a16.94,16.94,0,0,1-3.57,3.79,15.55,15.55,0,0,1-3.92,2.83,2,2,0,0,1-2.46-.52,2.2,2.2,0,0,1-.08-2.84,20.37,20.37,0,0,1,3.47-3.54c2.06-1.83,3.22-2.64,4.08-2.87A2.15,2.15,0,0,1,225.78,52Zm-5.8.81a24.84,24.84,0,0,0-3.22,3.23c-.34.5-.36.9-.06,1.24.62.7,1.58.18,4.71-2.59s3.83-3.7,3.2-4.41S223.06,50.11,220,52.82Z"/><path class="cls-2" d="M221.22,64.64l1.09-.72c3.24.34,6.52-.24,8.51-1.54,1.29-.85,1.73-1.56,1.32-2.18s-1.32-.6-2.54.21l-.5-1.11c1.86-1.12,3.26-1,4.12.28s.28,2.7-1.53,3.89c-2.07,1.35-5.19,1.89-8.84,1.55L224.77,68l-1,.63Z"/><path class="cls-2" d="M239.09,73.43a17.14,17.14,0,0,1-4.51,2.62,15.54,15.54,0,0,1-4.55,1.6,2,2,0,0,1-2.21-1.19,2.2,2.2,0,0,1,.73-2.75,20.37,20.37,0,0,1,4.32-2.41c2.5-1.17,3.84-1.62,4.73-1.6a2.15,2.15,0,0,1,2,1.27A2.11,2.11,0,0,1,239.09,73.43Zm-5.79-.86a24.78,24.78,0,0,0-4,2.17c-.47.39-.61.77-.42,1.18.4.84,1.47.62,5.26-1.15s4.72-2.46,4.31-3.33S237,70.83,233.3,72.57Z"/></g></g></svg>