<svg xmlns="http://www.w3.org/2000/svg" width="240" height="61.12" viewBox="0 0 240 61.12"><defs><style>.cls-1{fill:#fff;}.cls-2,.cls-4,.cls-5,.cls-6{fill:#e48b13;}.cls-3{fill:#38393b;}.cls-4{opacity:0.2;}.cls-5{opacity:0.6;}.cls-6{opacity:0.8;}</style></defs><g id="レイヤー_2" data-name="レイヤー 2"><g id="ロゴ_イラスト" data-name="ロゴ・イラスト"><path class="cls-1" d="M20.28,60.12A19.28,19.28,0,1,1,39.56,40.84,19.3,19.3,0,0,1,20.28,60.12Z"/><path class="cls-2" d="M20.28,22.56A18.28,18.28,0,1,1,2,40.84,18.3,18.3,0,0,1,20.28,22.56m0-2A20.28,20.28,0,1,0,40.56,40.84,20.28,20.28,0,0,0,20.28,20.56Z"/><path class="cls-3" d="M10.25.86a2.61,2.61,0,0,1,1-.23,2,2,0,0,1,1.12.31c.27.17.15.52-.28,1.91,1.1-.36,1.41-.64,1.62-.64a.56.56,0,0,1,.6.54c0,.26-.24.44-.42.57A8,8,0,0,1,11.69,4,24.64,24.64,0,0,1,9.31,9.39c-.28.43-.49.71-.81.71s-.58-.36-.58-.74a1.14,1.14,0,0,1,.3-.77,14.86,14.86,0,0,0,2.45-4.38,8.88,8.88,0,0,1-1,.06c-1.08,0-1.56-.35-1.95-1.6l.2-.15a2.59,2.59,0,0,0,1.84.76A6.16,6.16,0,0,0,11,3.13a7.54,7.54,0,0,0,.18-1.24.52.52,0,0,0-.31-.56,2.34,2.34,0,0,0-.6-.27Zm4.89,2.31a3.85,3.85,0,0,1,2,0c.87.29,1.38.86,1.38,1.52,0,.39-.14.64-.49.64S17.27,5,16.6,5.06a1.61,1.61,0,0,0-1.11.48,1.77,1.77,0,0,0-.2,1.25c0,.39.17,1.13.29,1.88a6.16,6.16,0,0,1,1.85.79c.76.44,1.22.91,1.22,1.4s-.23.6-.5.6-.52-.3-.93-.68a5.56,5.56,0,0,0-1.52-1,5,5,0,0,1,0,.52c0,1.15-.88,1.8-2.34,1.8s-2.27-.73-2.27-1.64,1.07-1.94,3-1.94h.49c0-.48-.06-1-.06-1.4a2.43,2.43,0,0,1,.59-1.81,4.51,4.51,0,0,1,1.55-1c.16-.11.11-.26-.07-.41a2.55,2.55,0,0,0-1.43-.42Zm-.53,6.22a5.48,5.48,0,0,0-1.18-.12c-1.16,0-1.72.51-1.72,1s.4.8,1.35.8c1.12,0,1.55-.52,1.55-1.3Z"/><path class="cls-3" d="M21.54,1.49V1.25a2.78,2.78,0,0,1,1-.19c.79,0,1.92.88,1.92,1.36s-.33.49-.46,1.14a28.48,28.48,0,0,0-.52,4.93c0,1.6.45,2.2,2,2.2a6.71,6.71,0,0,0,5.12-2.75l.27.18A6.05,6.05,0,0,1,25.32,12c-1.85,0-2.89-.92-2.89-3.35,0-2,.29-4.87.29-5.78,0-.58-.07-.79-.31-1A2.66,2.66,0,0,0,21.54,1.49Z"/><path class="cls-2" d="M19.26,40.64c0,4.34-1.87,6-3.84,6s-3.85-1.66-3.85-6,1.85-6,3.85-6S19.26,36.3,19.26,40.64ZM15.42,46c1.06,0,2-1.14,2-5.35s-1-5.38-2-5.38-2.06,1.14-2.06,5.38S14.32,46,15.42,46Z"/><path class="cls-2" d="M23.94,41.35c0,1.64-.76,2.31-1.57,2.31s-1.6-.67-1.6-2.31S21.55,39,22.37,39,23.94,39.7,23.94,41.35Zm-1.57,2c.4,0,.75-.38.75-2s-.35-2-.75-2-.77.39-.77,2S22,43.34,22.37,43.34Zm-.19,3.13,5.21-7.56.31.23L22.48,46.7ZM29,44.18c0,1.65-.76,2.32-1.57,2.32s-1.6-.67-1.6-2.32.77-2.31,1.6-2.31S29,42.54,29,44.18Zm-1.57,2c.39,0,.75-.4.75-2s-.36-2-.75-2-.77.38-.77,2S27,46.19,27.41,46.19Z"/><path class="cls-4" d="M70.14,60.12A19.28,19.28,0,1,1,89.42,40.84,19.3,19.3,0,0,1,70.14,60.12Z"/><path class="cls-2" d="M70.14,22.56A18.28,18.28,0,1,1,51.86,40.84,18.3,18.3,0,0,1,70.14,22.56m0-2A20.28,20.28,0,1,0,90.42,40.84,20.28,20.28,0,0,0,70.14,20.56Z"/><path class="cls-3" d="M54,5.33c-.44.3-1,.67-1.69,1.1v4.5c0,.92-.17,1.43-1.61,1.58a1.46,1.46,0,0,0-.25-.88,1.4,1.4,0,0,0-1-.43V11s1.11.08,1.35.08.27-.07.27-.24V7.17l-1,.58a.55.55,0,0,1-.28.37l-.61-1.5c.38-.08,1.06-.28,1.89-.54V3.56H49.55l-.11-.39h1.69V.05l1.72.18c0,.19-.18.32-.5.37V3.17h.13l.62-.95s.36.36.7.73a2.29,2.29,0,0,0,.88-1.66h.19A5.11,5.11,0,0,1,55,2h2V.24l1.69.15c0,.17-.13.31-.47.36V2h1.93l.69-.68L62.09,2.5c-.1.11-.24.14-.51.15-.35.34-1,.91-1.38,1.22L60,3.79c.07-.33.18-.92.27-1.38H59.15V5c0,.14,0,.18.3.18h1.23c.11,0,.18,0,.23-.12A5.91,5.91,0,0,0,61.3,4h.13l0,1.09c.31.12.39.25.39.47,0,.45-.4.65-1.88.65h-.85c-.94,0-1.09-.24-1.09-1V2.41h-.92C57,4.23,56.57,5.84,53.7,6.92l-.17-.2C55.71,5.5,55.89,4,55.94,2.41h-.87a1.67,1.67,0,0,1-.67,1.53c-.52.35-1,.05-1-.38h-1V5.69L54,5.16Zm6.72,5.24s.85.69,1.37,1.18c0,.14-.18.21-.38.21h-8.3l-.11-.39h3.75V8.1H54.48l-.11-.39h5.09l.73-1s.8.66,1.28,1.13c0,.15-.16.21-.35.21H58.34v3.47H60Z"/><path class="cls-3" d="M65.86,4c.22.4.49.71.81.71A25.26,25.26,0,0,0,70.26,4c.32-.1.44-.31.67-.31.44,0,1.46.58,1.46,1.08,0,.3-.53.45-1,.75a26.86,26.86,0,0,0-2.63,2.24,3.43,3.43,0,0,1,.84-.09,1.12,1.12,0,0,1,1.13.83c.12.44.27,1,.37,1.38.15.55.35.75.88.75a11.6,11.6,0,0,0,2.14-.3c.6,0,1,.3,1,.71,0,.65-1.58.79-2.81.79-1.52,0-2-.39-2.2-1.44-.08-.49-.16-1-.25-1.52a.68.68,0,0,0-.69-.64,1.8,1.8,0,0,0-1.22.6,18.92,18.92,0,0,0-2,2.36,1,1,0,0,1-.78.51.55.55,0,0,1-.57-.58c0-.56.26-.79.68-1.18S67,8.41,67.65,7.78c1-1,2.23-2.17,2.75-2.78.25-.29.11-.43-.22-.34a14.39,14.39,0,0,0-2.27.87c-.41.24-.57.48-.88.48a1.57,1.57,0,0,1-1.37-1,1.79,1.79,0,0,1,0-.89ZM67.15.54l.16-.16a4.52,4.52,0,0,0,2.43.85c.48,0,.72-.12,1-.12a1.12,1.12,0,0,1,1.12,1c0,.23-.16.44-.54.44s-.69,0-1,0A14.23,14.23,0,0,0,68,3l-.1-.25C68.4,2.52,69,2.24,69.39,2A3.64,3.64,0,0,1,67.15.54Z"/><path class="cls-3" d="M84.6,3.36a4,4,0,0,1,3.78,4c0,2.35-1.54,4.25-6.36,4.45l0-.28c4-.75,5.1-2.57,5.1-4.39A3.14,3.14,0,0,0,84.4,4a21.85,21.85,0,0,1-1.15,2.69,9.43,9.43,0,0,1-.64,1.14,1,1,0,0,1,.67.87c0,.29-.22.44-.54.44a1.71,1.71,0,0,1-.84-.32,5.86,5.86,0,0,1-1.05,1,3.16,3.16,0,0,1-2,.84c-.88,0-1.28-.9-1.28-1.78a5.38,5.38,0,0,1,2-4c-.1-.34-.2-.64-.29-.9A4.22,4.22,0,0,0,78,2.44l.14-.16a3.39,3.39,0,0,1,1.28.49,1.86,1.86,0,0,1,.87,1.09c0,.12.07.27.1.41a6.12,6.12,0,0,1,3-.95A10,10,0,0,0,83.67,2c0-.31-.12-.39-.35-.45a3.12,3.12,0,0,0-.79-.12l0-.23a2,2,0,0,1,1-.31c.56,0,1.63.54,1.63,1,0,.28-.21.46-.33.87ZM81.08,8.13a5,5,0,0,1-.88-1.35,11.8,11.8,0,0,1-.44-1.19,4.48,4.48,0,0,0-1.25,2.78c0,.71.27,1,.62,1a1.83,1.83,0,0,0,1.17-.52A7.64,7.64,0,0,0,81.08,8.13Zm2.2-4.21a5,5,0,0,0-2.72.93,6.47,6.47,0,0,0,.52,1.43,4.8,4.8,0,0,0,.7.93,8.33,8.33,0,0,0,.55-.9A13.65,13.65,0,0,0,83.28,3.92Z"/><path class="cls-2" d="M59.22,36.53c-.16.75-.47,1-1,1a.83.83,0,0,1-.84-.57c.24-1.65,1.72-2.4,3.43-2.4,2.19,0,3.46,1.17,3.46,2.83,0,1.35-.86,2.42-2.63,2.89,2.09.34,3,1.45,3,3,0,1.95-1.61,3.36-4.08,3.36-2,0-3.27-.83-3.53-2.58a.89.89,0,0,1,.88-.59c.55,0,.8.33,1,1.21l.29,1.2a3.83,3.83,0,0,0,.94.11,2.4,2.4,0,0,0,2.68-2.65,2.4,2.4,0,0,0-2.73-2.63h-.79V40h.66a2.32,2.32,0,0,0,2.57-2.51,2,2,0,0,0-2.16-2.22,3.46,3.46,0,0,0-.81.09Z"/><path class="cls-2" d="M73.61,40.64c0,4.34-1.87,6-3.84,6s-3.85-1.66-3.85-6,1.85-6,3.85-6S73.61,36.3,73.61,40.64ZM69.77,46c1.06,0,2-1.14,2-5.35s-1-5.38-2-5.38-2.06,1.14-2.06,5.38S68.67,46,69.77,46Z"/><path class="cls-2" d="M78.29,41.35c0,1.64-.76,2.31-1.57,2.31s-1.6-.67-1.6-2.31S75.9,39,76.72,39,78.29,39.7,78.29,41.35Zm-1.57,2c.39,0,.75-.38.75-2s-.36-2-.75-2-.77.39-.77,2S76.31,43.34,76.72,43.34Zm-.19,3.13,5.21-7.56.31.23L76.83,46.7Zm6.8-2.29c0,1.65-.76,2.32-1.57,2.32s-1.6-.67-1.6-2.32.77-2.31,1.6-2.31S83.33,42.54,83.33,44.18Zm-1.57,2c.39,0,.75-.4.75-2s-.36-2-.75-2-.78.38-.78,2S81.35,46.19,81.76,46.19Z"/><path class="cls-5" d="M120,60.12a19.28,19.28,0,1,1,19.28-19.28A19.3,19.3,0,0,1,120,60.12Z"/><path class="cls-2" d="M120,22.56a18.28,18.28,0,1,1-18.28,18.28A18.3,18.3,0,0,1,120,22.56m0-2a20.28,20.28,0,1,0,20.28,20.28A20.28,20.28,0,0,0,120,20.56Z"/><path class="cls-3" d="M108.72,5.4c2.74,1.15,1.65,3,.71,2.19a5,5,0,0,0-.71-1.87v6.39c0,.13-.51.37-1,.37h-.26V7a9.62,9.62,0,0,1-1.63,2.37l-.19-.16a15.66,15.66,0,0,0,1.68-5.51h-1.5l-.11-.39h1.75V.08l1.7.17c0,.21-.13.33-.49.38V3.29h.21l.63-.88s.62.54,1,1V2.12l1.26.5h.82V1.34h-2.45L110.11,1h6.22L117,.11s.79.59,1.29,1a.33.33,0,0,1-.36.22h-2.4V2.62h.94L117,2l1.12.84c-.08.11-.2.17-.47.23V5.56a1.41,1.41,0,0,1-1,.27h-.21V5.37h-4.82v.44c0,.08-.35.31-.93.31h-.19V3.62a.5.5,0,0,1-.26.06h-1.61ZM113,9.74c-.08.13-.19.2-.51.14a8,8,0,0,1-2.89,2l-.14-.16A8.48,8.48,0,0,0,111.55,9Zm4.07-2.36s.78.6,1.25,1c0,.14-.17.2-.35.2h-3.14V11c0,.83-.22,1.32-1.68,1.44a1.11,1.11,0,0,0-.26-.75,2.07,2.07,0,0,0-1.11-.37v-.2s1.27.09,1.55.09.3-.08.3-.23V8.61h-3.38l-.1-.37h6.24Zm-.83-1.63s.79.59,1.27,1c0,.15-.17.21-.36.21h-6l-.11-.37h4.48ZM111.71,3V5h1V3Zm1.91-.38h1V1.34h-1Zm1,2.36V3h-1V5Zm.92,4.19c3.59.85,2.71,3.27,1.51,2.48a6.29,6.29,0,0,0-1.64-2.37Zm0-6.17V5h1V3Z"/><path class="cls-3" d="M120.07,1.94c2.92.15,2.1,2.27,1,1.6A3.42,3.42,0,0,0,120,2Zm11,6.2s.89.67,1.44,1.16c0,.14-.17.21-.37.21h-5.2v2.66c0,.11-.59.34-1.06.34h-.24v-3h-5.4l-.1-.39h5.5V7.86A1.7,1.7,0,0,1,125,8h-.22V3.52a7.76,7.76,0,0,1-1.43,1.11l-.17-.14A11.57,11.57,0,0,0,125.53,0l1.66.64c0,.15-.23.26-.52.23a7.74,7.74,0,0,1-.55,1h1.59a14.77,14.77,0,0,0,.42-1.78l1.74.44c0,.16-.2.28-.49.27a11.1,11.1,0,0,1-1.2,1.07h1.93l.74-.91s.83.63,1.32,1.09c0,.14-.16.21-.34.21h-2.92V3.5h1l.66-.85s.75.58,1.22,1c0,.15-.18.21-.35.21h-2.57V5.16H130l.65-.85s.75.59,1.21,1c0,.15-.17.21-.36.21h-2.57V6.87h1.56L131.2,6s.79.64,1.28,1.1c0,.14-.17.21-.36.21H126v.33s-.07.11-.19.18l1.48.15c0,.13-.11.25-.38.29v.91h3.31Zm-10.12-2.8c.19,0,.25,0,.41-.21.3-.36.3-.36,2.74-3.67l.2.09c-.51,1-1.69,3-1.87,3.35a2.19,2.19,0,0,0-.26.91c0,.46.4.82.36,1.61a.77.77,0,0,1-.88.79c-.25,0-.45-.19-.52-.52.15-1.07.08-1.74-.2-1.9a1.45,1.45,0,0,0-.62-.16V5.34Zm.25-5.21c2.94.26,2.07,2.37,1,1.68A3.4,3.4,0,0,0,121,.23ZM126,2.25V3.5h1.7V2.25Zm1.7,1.63H126V5.16h1.7Zm0,1.66H126V6.87h1.7Z"/><path class="cls-1" d="M108.53,39.52a6.32,6.32,0,0,1,1.92-.27c2.42,0,4,1.28,4,3.57s-1.74,3.82-4.31,3.82c-1.92,0-3.14-.91-3.43-2.57a.89.89,0,0,1,.88-.6c.53,0,.81.3,1,1.16l.28,1.22A4,4,0,0,0,110,46c1.7,0,2.69-1.14,2.69-3A2.53,2.53,0,0,0,110,40.17a5.83,5.83,0,0,0-1.77.25l-.47-.18.37-5.4h6v1.53h-5.37Z"/><path class="cls-1" d="M123.49,40.64c0,4.34-1.87,6-3.83,6s-3.85-1.66-3.85-6,1.85-6,3.85-6S123.49,36.3,123.49,40.64ZM119.66,46c1,0,2-1.14,2-5.35s-1-5.38-2-5.38-2.07,1.14-2.07,5.38S118.55,46,119.66,46Z"/><path class="cls-1" d="M128.18,41.35c0,1.64-.76,2.31-1.58,2.31S125,43,125,41.35,125.78,39,126.6,39,128.18,39.7,128.18,41.35Zm-1.58,2c.4,0,.76-.38.76-2s-.36-2-.76-2-.77.39-.77,2S126.2,43.34,126.6,43.34Zm-.19,3.13,5.21-7.56.32.23-5.22,7.56Zm6.81-2.29c0,1.65-.77,2.32-1.58,2.32s-1.59-.67-1.59-2.32.77-2.31,1.59-2.31S133.22,42.54,133.22,44.18Zm-1.58,2c.4,0,.75-.4.75-2s-.35-2-.75-2-.77.38-.77,2S131.24,46.19,131.64,46.19Z"/><path class="cls-2" d="M219.72,60.12A19.28,19.28,0,1,1,239,40.84,19.3,19.3,0,0,1,219.72,60.12Z"/><path class="cls-2" d="M219.72,22.56a18.28,18.28,0,1,1-18.28,18.28,18.3,18.3,0,0,1,18.28-18.28m0-2A20.28,20.28,0,1,0,240,40.84a20.28,20.28,0,0,0-20.28-20.28Z"/><path class="cls-3" d="M216.76,2.05s.83.71,1.33,1.2c0,.15-.17.22-.36.22h-2.48v8.37c0,.15-.56.47-1.06.47h-.25v-1.1h-4.19V12c0,.16-.57.45-1.05.45h-.24v-9h-2.67l-.1-.39h2.77V.13l1.75.19c0,.19-.13.32-.46.38V3.08h4.19V.13l1.78.19c0,.19-.12.32-.47.38V3.08H216Zm-2.82,1.42h-4.19V6.75h4.19Zm0,7.35V7.14h-4.19v3.68Z"/><path class="cls-3" d="M231.64,11c.36.12.45.27.45.51,0,.52-.48.75-2.69.75h-1.46c-1.21,0-1.45-.23-1.45-1.08V7.77h-1.2c-.42,2.7-2,4.08-5.47,4.74l0-.2c2.81-.94,3.9-2.25,4.16-4.54h-.38v.31c0,.12-.54.37-1.05.37h-.17V4.23l1.3.51h4.44l.59-.63,1,.77c.12-.39.27-1,.37-1.44h-8.38a1.78,1.78,0,0,1-.76,1.84.77.77,0,0,1-1.1-.32.8.8,0,0,1,.53-.92,1.67,1.67,0,0,0,.86-1.63h.2a3,3,0,0,1,.2.65h3.58V0L227,.2c0,.19-.12.31-.46.36V3.05h1A24.41,24.41,0,0,0,228.66.4l1.82.5c0,.16-.21.27-.52.25a15.86,15.86,0,0,1-2.09,1.9H230l.75-.75L232,3.55c-.1.11-.25.13-.51.16A9.91,9.91,0,0,1,229.84,5l.09.08a.81.81,0,0,1-.48.26V8a1.88,1.88,0,0,1-1,.33h-.22V7.77h-.52v3.09c0,.2.05.24.51.24h2.49a.29.29,0,0,0,.3-.17,10.09,10.09,0,0,0,.49-1.54h.15ZM221.75.48c3.42.63,2.29,3.18,1.07,2.25A3.76,3.76,0,0,0,221.63.58Zm1.8,6.9h4.64V5.13h-4.64Z"/><path class="cls-1" d="M209.73,45.88v.52H203v-.52l2.5-.33c0-1,0-2,0-2.92V36l-2.27.25v-.62l3.83-.94.23.17,0,2.57v5.19c0,1,0,1.93,0,2.92Z"/><path class="cls-1" d="M218.21,40.64c0,4.34-1.87,6-3.84,6s-3.85-1.66-3.85-6,1.85-6,3.85-6S218.21,36.3,218.21,40.64ZM214.37,46c1.06,0,2-1.14,2-5.35s-1-5.38-2-5.38-2.06,1.14-2.06,5.38S213.26,46,214.37,46Z"/><path class="cls-1" d="M227.32,40.64c0,4.34-1.87,6-3.84,6s-3.85-1.66-3.85-6,1.85-6,3.85-6S227.32,36.3,227.32,40.64ZM223.48,46c1.06,0,2.05-1.14,2.05-5.35s-1-5.38-2.05-5.38-2.06,1.14-2.06,5.38S222.37,46,223.48,46Z"/><path class="cls-1" d="M232,41.35c0,1.64-.76,2.31-1.57,2.31s-1.6-.67-1.6-2.31.77-2.33,1.6-2.33S232,39.7,232,41.35Zm-1.57,2c.39,0,.75-.38.75-2s-.36-2-.75-2-.78.39-.78,2S230,43.34,230.43,43.34Zm-.2,3.13,5.21-7.56.32.23-5.22,7.56ZM237,44.18c0,1.65-.76,2.32-1.57,2.32s-1.6-.67-1.6-2.32.77-2.31,1.6-2.31S237,42.54,237,44.18Zm-1.57,2c.39,0,.75-.4.75-2s-.36-2-.75-2-.78.38-.78,2S235.06,46.19,235.47,46.19Z"/><path class="cls-6" d="M169.86,60.12a19.28,19.28,0,1,1,19.28-19.28A19.3,19.3,0,0,1,169.86,60.12Z"/><path class="cls-2" d="M169.86,22.56a18.28,18.28,0,1,1-18.28,18.28,18.3,18.3,0,0,1,18.28-18.28m0-2a20.28,20.28,0,1,0,20.28,20.28,20.28,20.28,0,0,0-20.28-20.28Z"/><path class="cls-3" d="M167.13,2.05s.83.71,1.32,1.2c0,.15-.17.22-.36.22h-2.48v8.37c0,.15-.56.47-1.06.47h-.25v-1.1h-4.19V12c0,.16-.56.45-1.05.45h-.24v-9h-2.66l-.11-.39h2.77V.13l1.76.19c0,.19-.14.32-.47.38V3.08h4.19V.13l1.78.19c0,.19-.12.32-.47.38V3.08h.79ZM164.3,3.47h-4.19V6.75h4.19Zm0,7.35V7.14h-4.19v3.68Z"/><path class="cls-3" d="M177.48,3.36a4,4,0,0,1,3.78,4c0,2.35-1.54,4.25-6.36,4.45l-.06-.28c4-.75,5.11-2.57,5.11-4.39A3.14,3.14,0,0,0,177.28,4a23.53,23.53,0,0,1-1.15,2.69,11,11,0,0,1-.64,1.14,1,1,0,0,1,.66.87c0,.29-.21.44-.53.44a1.71,1.71,0,0,1-.84-.32,5.86,5.86,0,0,1-1.05,1,3.21,3.21,0,0,1-2,.84c-.89,0-1.29-.9-1.29-1.78a5.39,5.39,0,0,1,2-4c-.11-.34-.2-.64-.29-.9a4.33,4.33,0,0,0-1.22-1.59l.13-.16a3.38,3.38,0,0,1,1.29.49,1.89,1.89,0,0,1,.87,1.09c0,.12.07.27.09.41a6.2,6.2,0,0,1,3-.95,8.36,8.36,0,0,0,.22-1.3c0-.31-.12-.39-.35-.45a3,3,0,0,0-.79-.12l0-.23a2,2,0,0,1,1-.31c.56,0,1.63.54,1.63,1,0,.28-.21.46-.34.87ZM174,8.13a5.33,5.33,0,0,1-.89-1.35c-.16-.36-.3-.78-.44-1.19a4.52,4.52,0,0,0-1.24,2.78c0,.71.26,1,.61,1a1.88,1.88,0,0,0,1.18-.52A8.83,8.83,0,0,0,174,8.13Zm2.19-4.21a4.92,4.92,0,0,0-2.71.93A6.47,6.47,0,0,0,174,6.28a4.41,4.41,0,0,0,.69.93,7,7,0,0,0,.55-.9A12.24,12.24,0,0,0,176.15,3.92Z"/><path class="cls-1" d="M164.44,34.84v1L160.26,46.4H158.6l-.16-.16,5-9.87h-6.37V34.84Z"/><path class="cls-1" d="M173.08,40.64c0,4.34-1.87,6-3.84,6s-3.85-1.66-3.85-6,1.85-6,3.85-6S173.08,36.3,173.08,40.64ZM169.24,46c1.06,0,2-1.14,2-5.35s-1-5.38-2-5.38-2.06,1.14-2.06,5.38S168.14,46,169.24,46Z"/><path class="cls-1" d="M177.76,41.35c0,1.64-.76,2.31-1.57,2.31s-1.59-.67-1.59-2.31.77-2.33,1.59-2.33S177.76,39.7,177.76,41.35Zm-1.57,2c.4,0,.75-.38.75-2s-.35-2-.75-2-.77.39-.77,2S175.78,43.34,176.19,43.34ZM176,46.47l5.21-7.56.31.23L176.3,46.7Zm6.8-2.29c0,1.65-.76,2.32-1.57,2.32s-1.6-.67-1.6-2.32.78-2.31,1.6-2.31S182.8,42.54,182.8,44.18Zm-1.57,2c.39,0,.75-.4.75-2s-.36-2-.75-2-.77.38-.77,2S180.82,46.19,181.23,46.19Z"/></g></g></svg>